<mxfile host="app.diagrams.net" agent="Mozilla/5.0 (Windows NT 10.0; Win64; x64; rv:142.0) Gecko/20100101 Firefox/142.0" version="28.1.2">
  <diagram name="第 1 页" id="FtrDkGMrHZfgMd34NGMi">
    <mxGraphModel dx="978" dy="491" grid="1" gridSize="10" guides="1" tooltips="1" connect="1" arrows="1" fold="1" page="1" pageScale="1" pageWidth="827" pageHeight="1169" math="0" shadow="0">
      <root>
        <mxCell id="0" />
        <mxCell id="1" parent="0" />
        <mxCell id="uC3OOLj_UewbeE2SaVF0-19" value="data1" style="rounded=1;whiteSpace=wrap;html=1;" vertex="1" parent="1">
          <mxGeometry x="170" y="130" width="110" height="20" as="geometry" />
        </mxCell>
        <mxCell id="uC3OOLj_UewbeE2SaVF0-20" value="data2" style="rounded=1;whiteSpace=wrap;html=1;" vertex="1" parent="1">
          <mxGeometry x="280" y="130" width="80" height="20" as="geometry" />
        </mxCell>
        <mxCell id="uC3OOLj_UewbeE2SaVF0-21" value="data3" style="rounded=1;whiteSpace=wrap;html=1;" vertex="1" parent="1">
          <mxGeometry x="360" y="130" width="60" height="20" as="geometry" />
        </mxCell>
        <mxCell id="uC3OOLj_UewbeE2SaVF0-22" value="&lt;div&gt;data3&lt;/div&gt;" style="rounded=1;whiteSpace=wrap;html=1;" vertex="1" parent="1">
          <mxGeometry x="420" y="130" width="80" height="20" as="geometry" />
        </mxCell>
        <mxCell id="uC3OOLj_UewbeE2SaVF0-23" value="" style="endArrow=none;html=1;rounded=0;" edge="1" parent="1">
          <mxGeometry width="50" height="50" relative="1" as="geometry">
            <mxPoint x="130" y="120" as="sourcePoint" />
            <mxPoint x="500" y="120" as="targetPoint" />
            <Array as="points">
              <mxPoint x="170" y="120" />
              <mxPoint x="170" y="100" />
              <mxPoint x="180" y="100" />
              <mxPoint x="180" y="120" />
              <mxPoint x="280" y="120" />
              <mxPoint x="280" y="100" />
              <mxPoint x="290" y="100" />
              <mxPoint x="290" y="120" />
              <mxPoint x="360" y="120" />
              <mxPoint x="360" y="100" />
              <mxPoint x="370" y="100" />
              <mxPoint x="370" y="120" />
              <mxPoint x="420" y="120" />
              <mxPoint x="420" y="100" />
              <mxPoint x="430" y="100" />
              <mxPoint x="430" y="120" />
            </Array>
          </mxGeometry>
        </mxCell>
        <mxCell id="uC3OOLj_UewbeE2SaVF0-24" value="" style="rounded=1;whiteSpace=wrap;html=1;dashed=1;dashPattern=8 8;" vertex="1" parent="1">
          <mxGeometry x="120" y="130" width="50" height="20" as="geometry" />
        </mxCell>
        <mxCell id="uC3OOLj_UewbeE2SaVF0-25" value="" style="endArrow=classic;startArrow=classic;html=1;rounded=0;" edge="1" parent="1">
          <mxGeometry width="50" height="50" relative="1" as="geometry">
            <mxPoint x="180" y="110" as="sourcePoint" />
            <mxPoint x="280" y="110" as="targetPoint" />
          </mxGeometry>
        </mxCell>
        <mxCell id="uC3OOLj_UewbeE2SaVF0-26" value="timestamp2" style="edgeLabel;html=1;align=center;verticalAlign=middle;resizable=0;points=[];" vertex="1" connectable="0" parent="uC3OOLj_UewbeE2SaVF0-25">
          <mxGeometry x="0.0835" relative="1" as="geometry">
            <mxPoint x="-3" y="-1" as="offset" />
          </mxGeometry>
        </mxCell>
        <mxCell id="uC3OOLj_UewbeE2SaVF0-27" value="data1" style="rounded=1;whiteSpace=wrap;html=1;" vertex="1" parent="1">
          <mxGeometry x="240" y="170" width="60" height="20" as="geometry" />
        </mxCell>
        <mxCell id="uC3OOLj_UewbeE2SaVF0-28" value="timestamp1" style="rounded=1;whiteSpace=wrap;html=1;" vertex="1" parent="1">
          <mxGeometry x="170" y="170" width="70" height="20" as="geometry" />
        </mxCell>
        <mxCell id="uC3OOLj_UewbeE2SaVF0-29" value="data2" style="rounded=1;whiteSpace=wrap;html=1;" vertex="1" parent="1">
          <mxGeometry x="240" y="190" width="60" height="20" as="geometry" />
        </mxCell>
        <mxCell id="uC3OOLj_UewbeE2SaVF0-30" value="timestamp2" style="rounded=1;whiteSpace=wrap;html=1;" vertex="1" parent="1">
          <mxGeometry x="170" y="190" width="70" height="20" as="geometry" />
        </mxCell>
        <mxCell id="uC3OOLj_UewbeE2SaVF0-31" value="data3" style="rounded=1;whiteSpace=wrap;html=1;" vertex="1" parent="1">
          <mxGeometry x="240" y="210" width="60" height="20" as="geometry" />
        </mxCell>
        <mxCell id="uC3OOLj_UewbeE2SaVF0-32" value="timestamp3" style="rounded=1;whiteSpace=wrap;html=1;" vertex="1" parent="1">
          <mxGeometry x="170" y="210" width="70" height="20" as="geometry" />
        </mxCell>
        <mxCell id="uC3OOLj_UewbeE2SaVF0-33" value="" style="endArrow=classic;startArrow=classic;html=1;rounded=0;" edge="1" parent="1">
          <mxGeometry width="50" height="50" relative="1" as="geometry">
            <mxPoint x="290" y="110" as="sourcePoint" />
            <mxPoint x="360" y="110" as="targetPoint" />
            <Array as="points">
              <mxPoint x="330" y="110" />
            </Array>
          </mxGeometry>
        </mxCell>
        <mxCell id="uC3OOLj_UewbeE2SaVF0-34" value="&lt;font style=&quot;font-size: 10px;&quot;&gt;timestamp3&lt;/font&gt;" style="edgeLabel;html=1;align=center;verticalAlign=middle;resizable=0;points=[];" vertex="1" connectable="0" parent="uC3OOLj_UewbeE2SaVF0-33">
          <mxGeometry x="0.0835" relative="1" as="geometry">
            <mxPoint x="-1" y="-1" as="offset" />
          </mxGeometry>
        </mxCell>
        <mxCell id="uC3OOLj_UewbeE2SaVF0-35" value="" style="shape=flexArrow;endArrow=classic;html=1;rounded=0;width=4.385964912280701;endSize=6.040350877192982;endWidth=7.476146506617421;" edge="1" parent="1">
          <mxGeometry width="50" height="50" relative="1" as="geometry">
            <mxPoint x="120" y="179.78" as="sourcePoint" />
            <mxPoint x="160" y="179.78" as="targetPoint" />
          </mxGeometry>
        </mxCell>
        <mxCell id="uC3OOLj_UewbeE2SaVF0-36" value="&lt;font style=&quot;font-size: 6px;&quot;&gt;1&lt;/font&gt;" style="edgeLabel;html=1;align=center;verticalAlign=middle;resizable=0;points=[];" vertex="1" connectable="0" parent="uC3OOLj_UewbeE2SaVF0-35">
          <mxGeometry x="0.2039" y="-1" relative="1" as="geometry">
            <mxPoint as="offset" />
          </mxGeometry>
        </mxCell>
      </root>
    </mxGraphModel>
  </diagram>
</mxfile>
